<!-- icon666.com - MILLIONS vector ICONS FREE --><svg viewBox="0 0 512.00048 512" xmlns="http://www.w3.org/2000/svg" fill='black'><path d="m499.324219 352.03125c-1.824219-.71875-8.027344-3.074219-16.882813-5.511719 2.835938-3.125 5.496094-6.503906 7.902344-10.160156 23.269531-35.339844 21.679688-85.960937 21.601562-88.097656-.214843-5.824219-2.957031-11.261719-7.511718-14.894531-3.246094-2.589844-7.175782-4.074219-11.238282-4.324219.136719-.429688.28125-.855469.414063-1.289063 12.410156-40.308594-.570313-88.085937-1.128906-90.097656-1.644531-5.933594-5.929688-10.773438-11.613281-13.132812-5.128907-2.125-10.882813-2.003907-15.894532.261718-.0625-4.035156-.382812-8.136718-1.011718-12.28125-6.328126-41.628906-38.441407-79.039062-39.804688-80.609375-4.058594-4.679687-10.066406-7.210937-16.238281-6.859375-6.183594.347656-11.855469 3.542969-15.359375 8.648438-1.238282 1.804687-5.835938 8.695312-10.992188 18.734375-1.5625-2.105469-3.230468-4.167969-5.015625-6.171875-27.929687-31.371094-75.125-44.933594-77.117187-45.496094-5.945313-1.675781-12.332032-.507812-17.300782 3.15625-4.96875 3.667969-7.964843 9.425781-8.117187 15.597656-.15625 6.226563-.675781 61.765625 28.105469 94.089844 20.726562 23.28125 50.992187 31.269531 68.136718 33.996094 7.414063 18.769531 19.917969 33.546875 29.605469 43-1.09375 2.5625-2.066406 5.179687-2.886719 7.855468-9.226562 29.96875-.242187 60.289063 6.367188 76.472657-.941406 1.238281-1.847656 2.507812-2.703125 3.8125-16.964844 25.761719-15.679687 57.296875-12.964844 75.363281-12.925781 8.769531-22.625 20.550781-29.632812 31.625-1.203125 1.015625-2.316407 2.171875-3.285157 3.5-25.53125 35.042969-64.59375 55.351562-99.414062 67.078125-31.839844-10.753906-67.1875-28.746094-92.535156-58.734375-7.027344-14.234375-19.203125-33.203125-38.179688-45.644531 2.476563-18.34375 3.027344-48.429688-13.273437-73.1875-.859375-1.304688-1.765625-2.574219-2.703125-3.8125 6.605468-16.183594 15.59375-46.507813 6.367187-76.472657-.824219-2.675781-1.796875-5.292968-2.890625-7.855468 9.660156-9.425782 22.117188-24.144532 29.539063-42.832032 16.929687-2.566406 48.039062-10.390624 69.203125-34.164062 28.785156-32.328125 28.261718-87.863281 28.109375-94.089844-.15625-6.171875-3.152344-11.929687-8.121094-15.597656-4.96875-3.667969-11.351563-4.832031-17.296875-3.15625-1.996094.5625-49.191406 14.125-77.121094 45.496094-2.011718 2.257812-3.871094 4.59375-5.601562 6.976562-5.320313-10.476562-10.132813-17.6875-11.402344-19.539062-3.503906-5.105469-9.175781-8.300782-15.359375-8.648438-6.183594-.351562-12.179687 2.183594-16.238281 6.859375-1.363282 1.570313-33.476563 38.980469-39.804688 80.609375-.628906 4.144532-.949218 8.242188-1.011718 12.28125-5.011719-2.265625-10.765626-2.386718-15.894532-.261718-5.683594 2.359374-9.96875 7.199218-11.613281 13.132812-.558594 2.011719-13.539063 49.789062-1.128906 90.097656.132812.433594.277343.859375.414062 1.289063-4.0625.253906-7.996093 1.734375-11.238281 4.324219-4.554688 3.632812-7.296875 9.070312-7.5117188 14.894531-.0820312 2.136719-1.6679692 52.757812 21.6015628 88.097656 2.195312 3.339844 4.605468 6.445313 7.171875 9.34375-7.703125 2.210937-13.058594 4.242187-14.726563 4.902344-5.4375 2.140625-9.664062 6.546875-11.574218 12.070312-1.90625 5.519531-1.308594 11.597657 1.640624 16.640625 1.085938 1.851563 26.972657 45.527344 65.375 63.136719 13.09375 6.003906 26.851563 8.058594 39.554688 8.058594 18.046875 0 33.949219-4.144531 42.789062-7.011719 12.070313 10.746094 25.09375 19.800781 38.414063 27.453125-6.898437.824219-11.015625 1.054687-11.226563 1.066406-11.035156.511719-19.5625 9.871094-19.050781 20.90625.5 10.71875 9.34375 19.070313 19.964844 19.070313.3125 0 .628906-.007813.945313-.019532 2.703124-.128906 34.65625-1.851562 74.570312-13.625 39.914062 11.769532 71.863281 13.496094 74.570312 13.625.316407.011719.628907.019532.945313.019532 10.617187 0 19.460937-8.351563 19.960937-19.070313.511719-11.035156-8.015624-20.394531-19.046874-20.90625-.21875-.011719-4.347657-.234375-11.269532-1.046875 13.152344-7.546875 26.011719-16.472656 37.953125-27.035156 7.890625 2.773438 25.449219 8 45.714844 8 12.699219 0 26.460937-2.054688 39.554687-8.058594 10.039063-4.605468 14.445313-16.476562 9.839844-26.515625-4.601562-10.039062-16.472656-14.449219-26.515625-9.84375-12.1875 5.589844-26.402343 5.121094-37.644531 3.230469 5.683594-10 14.382812-21.363281 26.480469-26.910156 20.53125-9.414063 57.355469 1.019531 68.648437 5.417968 10.273438 4.027344 21.867188-1.023437 25.914063-11.292968 4.046875-10.273438-1.003907-21.886719-11.28125-25.933594zm-421.375-51.300781c6.988281 10.613281 8.457031 24.734375 7.929687 36.589843-10.738281-4.402343-23.363281-11.636718-30.820312-22.957031-7.394532-11.234375-11.175782-25.648437-13.09375-38.011719 13.851562 5.433594 28.867187 13.574219 35.984375 24.378907zm88.371093-227.886719c8.21875-9.230469 19.402344-16.523438 29.757813-21.917969-2.558594 13.160157-7.152344 27.167969-15.078125 36.070313-8.144531 9.148437-19.5 14.519531-29.570312 17.65625 2.257812-10.457032 6.59375-22.492188 14.890624-31.808594zm-78.738281 45.675781c1.875-12.339843 7.3125-24.6875 13.082031-34.976562 4.992188 12.394531 8.683594 26.546875 6.882813 38.40625-1.855469 12.207031-8.464844 23.019531-15.21875 31.25-3.757813-9.96875-6.617187-22.363281-4.746094-34.679688zm-16.929687 79.179688c.007812.011719.019531.023437.027344.03125 2.671874 4.054687 4.804687 8.246093 6.109374 12.484375 3.683594 11.957031 2.273438 24.765625-.371093 35.203125-7.882813-7.355469-16.089844-17.375-19.800781-29.433594-3.722657-12.085937-4.105469-25.789063-3.28125-37.6875 5.785156 5.171875 11.453124 11.074219 15.917968 17.355469.757813 1.140625 1.261719 1.855468 1.398438 2.046875zm15.558594 208.394531c-12.253907-5.621094-23.195313-15.851562-31.484376-25.335938 9.429688-1.738281 19.835938-2.746093 29.136719-1.757812 6.453125 1.992188 11.398438 3.054688 13.671875 3.492188 9.398438 4.363281 16.996094 12.585937 22.703125 21.070312.265625 2.066406.867188 4.105469 1.796875 6.046875-10.9375 1.636719-24.285156 1.773437-35.824218-3.515625zm347.835937-105.363281c7.0625-10.722657 22.097656-18.863281 35.976563-24.320313-1.921876 12.351563-5.703126 26.734375-13.085938 37.953125-7.148438 10.859375-19.664062 18.28125-30.816406 22.929688-.527344-11.859375.945312-25.960938 7.925781-36.5625zm24.601563-122.421875c.8125 12.234375.34375 25.949218-3.269532 37.675781-3.714844 12.070313-11.917968 22.082031-19.792968 29.4375-2.644532-10.445313-4.058594-23.261719-.378907-35.207031 1.304688-4.234375 3.4375-8.425782 6.109375-12.480469.007813-.011719.019532-.023437.027344-.035156.136719-.191407.648438-.910157 1.40625-2.0625 4.460938-6.269531 10.125-12.167969 15.898438-17.328125zm-47.320313-94.765625c5.773437 10.289062 11.210937 22.636719 13.085937 34.972656 1.871094 12.320313-.988281 24.714844-4.746093 34.679687-6.753907-8.234374-13.363281-19.046874-15.21875-31.246093-1.800781-11.863281 1.894531-26.011719 6.878906-38.40625zm-79.332031 3.453125c-7.964844-8.945313-12.5625-22.894532-15.113282-36.054688 10.390626 5.410156 21.605469 12.703125 29.792969 21.902344 8.296875 9.316406 12.632813 21.355469 14.894531 31.808594-10.082031-3.140625-21.429687-8.507813-29.574218-17.65625zm-143.957032 125.277344 58-38c6.144532-4.027344 14.003907-4.359376 20.464844-.867188 6.464844 3.492188 10.492188 10.246094 10.492188 17.59375v150c0 11.042969-8.953125 20-20 20-11.042969 0-20-8.957031-20-20v-112.984375l-27.039063 17.714844c-9.238281 6.050781-21.632812 3.46875-27.6875-5.769531-6.054687-9.238282-3.46875-21.636719 5.769531-27.6875zm0 0"></path></svg>